<svg width="20" height="24" viewBox="0 0 20 24" fill="none" xmlns="http://www.w3.org/2000/svg">
<path d="M19.4691 16.3783C17.73 15.1547 17.73 13.5478 17.73 13.5478V9.65597C17.73 6.17687 15.4014 3.27271 12.2328 2.32923C12.2328 2.285 12.2328 2.25552 12.2328 2.21129C12.2328 0.98771 11.2454 0 10.0221 0C8.79886 0 7.81142 0.98771 7.81142 2.21129C7.81142 2.25552 7.81142 2.285 7.81142 2.32923C4.64276 3.27271 2.31417 6.17687 2.31417 9.65597V13.5478C2.31417 13.5478 2.31417 15.1547 0.575098 16.3783C-0.368129 17.0417 -0.235488 19.2825 1.60675 19.2825H18.3932C20.2355 19.2825 20.3681 17.0417 19.4249 16.3783H19.4691Z" fill="#FFAEB1"/>
<path d="M10.0076 24.0001C11.8056 24.0001 13.2499 22.5406 13.2499 20.7568H6.75049C6.75049 22.5554 8.20954 24.0001 9.99283 24.0001H10.0076Z" fill="#FF363C"/>
</svg>
