<svg width="16" height="16" viewBox="0 0 16 16" fill="none" xmlns="http://www.w3.org/2000/svg">
<path d="M15.333 1.75195C15.7012 1.75195 16 2.05133 16 2.41992C15.9998 2.78837 15.7011 3.08691 15.333 3.08691H2.66699V11.3281C2.66713 13.1709 4.15931 14.6648 6 14.665H10C11.8409 14.665 13.3338 13.171 13.334 11.3281V4.53418C13.334 4.1657 13.632 3.86641 14 3.86621C14.3682 3.86621 14.667 4.16558 14.667 4.53418V11.3281C14.6669 13.9082 12.5772 16 10 16H6C3.42293 15.9998 1.33412 13.9081 1.33398 11.3281V3.08691H0.666992C0.298903 3.08691 0.000162413 2.78837 0 2.41992C0 2.05133 0.298802 1.75195 0.666992 1.75195H15.333ZM6 4.92285C6.36802 4.92305 6.66602 5.22236 6.66602 5.59082V11.2949C6.66577 11.6632 6.36787 11.9617 6 11.9619C5.63196 11.9619 5.33325 11.6633 5.33301 11.2949V5.59082C5.33301 5.22223 5.63181 4.92285 6 4.92285ZM10 4.92285C10.368 4.92305 10.666 5.22236 10.666 5.59082V11.2949C10.6658 11.6632 10.3679 11.9617 10 11.9619C9.63196 11.9619 9.33325 11.6633 9.33301 11.2949V5.59082C9.33301 5.22223 9.63181 4.92285 10 4.92285ZM10.666 0C11.0341 0 11.3328 0.298586 11.333 0.666992C11.333 1.03558 11.0342 1.33496 10.666 1.33496H5.33301C4.96482 1.33496 4.66602 1.03558 4.66602 0.666992C4.66623 0.298586 4.96495 0 5.33301 0H10.666Z" fill="#6F717C"/>
</svg>
