<svg width="25" height="25" viewBox="0 0 25 25" fill="none" xmlns="http://www.w3.org/2000/svg">
<path d="M0.900391 6.37344C0.900391 4.38521 2.51217 2.77344 4.50039 2.77344H21.3004C23.2886 2.77344 24.9004 4.38521 24.9004 6.37344V9.97344H0.900391V6.37344Z" fill="#FF363C"/>
<path d="M0.900391 9.97266H24.9004V20.7727C24.9004 22.7609 23.2886 24.3727 21.3004 24.3727H4.50039C2.51217 24.3727 0.900391 22.7609 0.900391 20.7727V9.97266Z" fill="#FFAEB1"/>
<rect x="5.7002" y="12.9727" width="2.4" height="2.4" rx="1.2" fill="#FF363C"/>
<rect x="11.7002" y="12.9727" width="2.4" height="2.4" rx="1.2" fill="#FF363C"/>
<rect x="17.7002" y="12.9727" width="2.4" height="2.4" rx="1.2" fill="#FF363C"/>
<rect x="5.7002" y="18.9727" width="2.4" height="2.4" rx="1.2" fill="#FF363C"/>
<rect x="11.7002" y="18.9727" width="2.4" height="2.4" rx="1.2" fill="#FF363C"/>
<rect x="17.7002" y="18.9727" width="2.4" height="2.4" rx="1.2" fill="#FF363C"/>
<rect x="5.38379" y="0.373047" width="2.4" height="6" rx="1.2" fill="#FFE0E1"/>
<rect x="17.7002" y="0.373047" width="2.4" height="6" rx="1.2" fill="#FFE0E1"/>
</svg>
