<svg width="12" height="13" viewBox="0 0 12 13" fill="none" xmlns="http://www.w3.org/2000/svg">
<path d="M10.6336 0.734194C10.9459 0.421851 11.452 0.422019 11.7644 0.734194C12.0768 1.04662 12.0768 1.55263 11.7644 1.86505L7.12965 6.49884L11.7644 11.1336L11.8201 11.1942C12.0763 11.5084 12.0573 11.9716 11.7644 12.2645C11.4715 12.5571 11.0082 12.5763 10.6941 12.3201L10.6336 12.2645L5.99977 7.6297L1.36598 12.2645L1.30544 12.3201C0.991231 12.5761 0.527908 12.5573 0.235124 12.2645C-0.0576926 11.9716 -0.0758098 11.5084 0.180436 11.1942L0.235124 11.1336L4.86891 6.49884L0.235124 1.86505C-0.0769855 1.55262 -0.0771349 1.04653 0.235124 0.734194C0.547451 0.421851 1.05355 0.422019 1.36598 0.734194L5.99977 5.36798L10.6336 0.734194Z" fill="#999BA5"/>
</svg>
