<svg width="24" height="20" viewBox="0 0 24 20" fill="none" xmlns="http://www.w3.org/2000/svg">
<path d="M19.203 0.25H4.78201C2.14366 0.25 0 2.43052 0 5.11425V12.0675C0 13.3636 0.494691 14.5378 1.31918 15.4069C1.76889 15.8949 1.99375 16.5506 1.85884 17.2062L1.69394 18.0297C1.4391 19.28 2.78826 20.2102 3.8376 19.5088L7.22548 17.252C7.54029 17.0385 7.91505 16.9318 8.28982 16.9318H19.218C21.8563 16.9318 24 14.7513 24 12.0675V5.11425C24 2.43052 21.8563 0.25 19.218 0.25H19.203Z" fill="#FFAEB1"/>
<path d="M7.35 10.4517C8.09558 10.4517 8.7 9.84693 8.7 9.10087C8.7 8.3548 8.09558 7.75 7.35 7.75C6.60442 7.75 6 8.3548 6 9.10087C6 9.84693 6.60442 10.4517 7.35 10.4517Z" fill="#FF363C"/>
<path d="M12.3451 10.4517C13.0907 10.4517 13.6951 9.84693 13.6951 9.10087C13.6951 8.3548 13.0907 7.75 12.3451 7.75C11.5995 7.75 10.9951 8.3548 10.9951 9.10087C10.9951 9.84693 11.5995 10.4517 12.3451 10.4517Z" fill="#FF363C"/>
<path d="M17.3402 10.4517C18.0858 10.4517 18.6902 9.84693 18.6902 9.10087C18.6902 8.3548 18.0858 7.75 17.3402 7.75C16.5946 7.75 15.9902 8.3548 15.9902 9.10087C15.9902 9.84693 16.5946 10.4517 17.3402 10.4517Z" fill="#FF363C"/>
</svg>
