<svg width="25" height="21" viewBox="0 0 25 21" fill="none" xmlns="http://www.w3.org/2000/svg">
<path d="M19.703 0.539062H5.28201C2.64366 0.539062 0.5 2.71959 0.5 5.40331V12.3566C0.5 13.6527 0.994691 14.8268 1.81918 15.696C2.26889 16.1839 2.49375 16.8396 2.35884 17.4953L2.19394 18.3187C1.9391 19.5691 3.28826 20.4992 4.3376 19.7978L7.72548 17.5411C8.04029 17.3276 8.41505 17.2208 8.78982 17.2208H19.718C22.3563 17.2208 24.5 15.0403 24.5 12.3566V5.40331C24.5 2.71959 22.3563 0.539062 19.718 0.539062H19.703Z" fill="#FFAEB1"/>
<path d="M7.85 10.7408C8.59558 10.7408 9.2 10.136 9.2 9.38993C9.2 8.64387 8.59558 8.03906 7.85 8.03906C7.10442 8.03906 6.5 8.64387 6.5 9.38993C6.5 10.136 7.10442 10.7408 7.85 10.7408Z" fill="#FF363C"/>
<path d="M12.8451 10.7408C13.5907 10.7408 14.1951 10.136 14.1951 9.38993C14.1951 8.64387 13.5907 8.03906 12.8451 8.03906C12.0995 8.03906 11.4951 8.64387 11.4951 9.38993C11.4951 10.136 12.0995 10.7408 12.8451 10.7408Z" fill="#FF363C"/>
<path d="M17.8402 10.7408C18.5858 10.7408 19.1902 10.136 19.1902 9.38993C19.1902 8.64387 18.5858 8.03906 17.8402 8.03906C17.0946 8.03906 16.4902 8.64387 16.4902 9.38993C16.4902 10.136 17.0946 10.7408 17.8402 10.7408Z" fill="#FF363C"/>
</svg>
