<svg width="25" height="25" viewBox="0 0 25 25" fill="none" xmlns="http://www.w3.org/2000/svg">
<rect x="0.650391" y="0.0820312" width="24" height="24" rx="12" fill="#999BA5"/>
<path d="M17.2842 6.31641C17.5965 6.00406 18.1026 6.00423 18.415 6.31641C18.7275 6.62883 18.7275 7.13484 18.415 7.44727L13.7803 12.0811L18.415 16.7158C18.7275 17.0282 18.7275 17.5343 18.415 17.8467C18.1026 18.1589 17.5965 18.159 17.2842 17.8467L12.6504 13.2119L8.0166 17.8467C7.70417 18.1589 7.19809 18.159 6.88574 17.8467C6.57348 17.5343 6.57359 17.0282 6.88574 16.7158L11.5195 12.0811L6.88574 7.44727C6.57363 7.13483 6.57348 6.62874 6.88574 6.31641C7.19807 6.00406 7.70417 6.00423 8.0166 6.31641L12.6504 10.9502L17.2842 6.31641Z" fill="white"/>
</svg>
