<svg width="20" height="20" viewBox="0 0 20 20" fill="none" xmlns="http://www.w3.org/2000/svg">
<path d="M18.5234 12.3447C18.9653 12.3447 19.3232 12.7027 19.3232 13.1445V17.1533C19.3231 18.6996 18.0698 19.9531 16.5234 19.9531H3.19141C1.64509 19.9531 0.391733 18.6996 0.391602 17.1533V13.1445C0.391602 12.7027 0.749578 12.3447 1.19141 12.3447C1.63323 12.3447 1.99121 12.7027 1.99121 13.1445V17.1533C1.99134 17.8159 2.52874 18.3535 3.19141 18.3535H16.5234C17.1861 18.3535 17.7235 17.8159 17.7236 17.1533V13.1445C17.7236 12.7028 18.0817 12.3449 18.5234 12.3447ZM9.83789 0.421875C10.2517 0.421955 10.5924 0.736653 10.6338 1.13965L10.6377 1.22168L10.6426 12.5859L14.3457 9.01855C14.6638 8.71242 15.1701 8.72234 15.4766 9.04004C15.783 9.35809 15.7739 9.86429 15.4561 10.1709L11.1064 14.3623C10.4093 15.034 9.30554 15.034 8.6084 14.3623L4.25879 10.1709C3.94099 9.86434 3.93096 9.3581 4.2373 9.04004C4.54363 8.72214 5.04996 8.71273 5.36816 9.01855L9.04297 12.5596L9.03809 1.22266L9.04199 1.1416C9.08264 0.738053 9.42359 0.422078 9.83789 0.421875Z" fill="#6F717C"/>
</svg>
