<svg width="17" height="16" viewBox="0 0 17 16" fill="none" xmlns="http://www.w3.org/2000/svg">
<path d="M11.8496 0.880859C12.9784 0.880859 13.8961 1.25349 14.6367 1.99414C15.3774 2.73479 15.75 3.65241 15.75 4.78125C15.75 5.33705 15.6568 5.8811 15.4688 6.41504C15.2839 6.93964 14.9493 7.53836 14.4482 8.21289C13.9475 8.88689 13.2657 9.65811 12.3965 10.5273C11.5249 11.3989 10.4186 12.4389 9.07617 13.6484L8.25 14.3887L7.42383 13.6484C6.08141 12.4389 4.97511 11.3989 4.10352 10.5273C3.23428 9.65811 2.55248 8.88689 2.05176 8.21289C1.55068 7.53836 1.21608 6.93964 1.03125 6.41504C0.843158 5.8811 0.750044 5.33705 0.75 4.78125C0.75 3.65241 1.12263 2.73479 1.86328 1.99414C2.60393 1.25349 3.52155 0.880859 4.65039 0.880859C5.27042 0.880914 5.85795 1.01133 6.41797 1.27344C6.97893 1.53601 7.46168 1.9054 7.86914 2.38477L8.25 2.83301L8.63086 2.38477C9.03832 1.9054 9.52107 1.53601 10.082 1.27344C10.642 1.01133 11.2296 0.880914 11.8496 0.880859Z" stroke="white"/>
</svg>
