<svg width="20" height="20" viewBox="0 0 20 20" fill="none" xmlns="http://www.w3.org/2000/svg">
<path d="M10 19.1742L8.55 17.8742C6.86667 16.3576 5.475 15.0492 4.375 13.9492C3.275 12.8492 2.4 11.8617 1.75 10.9867C1.1 10.1117 0.645833 9.30755 0.3875 8.57422C0.129167 7.84089 0 7.09089 0 6.32422C0 4.75755 0.525 3.44922 1.575 2.39922C2.625 1.34922 3.93333 0.824219 5.5 0.824219C6.36667 0.824219 7.19167 1.00755 7.975 1.37422C8.75833 1.74089 9.43333 2.25755 10 2.92422C10.5667 2.25755 11.2417 1.74089 12.025 1.37422C12.8083 1.00755 13.6333 0.824219 14.5 0.824219C16.0667 0.824219 17.375 1.34922 18.425 2.39922C19.475 3.44922 20 4.75755 20 6.32422C20 7.09089 19.8708 7.84089 19.6125 8.57422C19.3542 9.30755 18.9 10.1117 18.25 10.9867C17.6 11.8617 16.725 12.8492 15.625 13.9492C14.525 15.0492 13.1333 16.3576 11.45 17.8742L10 19.1742Z" fill="#FF363C"/>
</svg>
