<svg width="21" height="19" viewBox="0 0 21 19" fill="none" xmlns="http://www.w3.org/2000/svg">
<path d="M15 0.613281C16.4422 0.613281 17.6206 1.09135 18.5713 2.04199C19.5219 2.99264 20 4.17111 20 5.61328C20 6.32255 19.8804 7.01653 19.6406 7.69727C19.4041 8.36851 18.9797 9.12804 18.3486 9.97754C17.7179 10.8266 16.8609 11.7954 15.7715 12.8848C14.6799 13.9764 13.2953 15.2781 11.6162 16.791L10.5 17.791L9.38379 16.791C7.70468 15.2781 6.32012 13.9764 5.22852 12.8848C4.13915 11.7954 3.28211 10.8266 2.65137 9.97754C2.02032 9.12804 1.59587 8.36851 1.35938 7.69727C1.11957 7.01653 1 6.32255 1 5.61328C1 4.17111 1.47806 2.99264 2.42871 2.04199C3.37936 1.09135 4.55783 0.613281 6 0.613281C6.79347 0.613281 7.54592 0.780742 8.2627 1.11621C8.98032 1.45212 9.59835 1.92441 10.1191 2.53711L10.5 2.98535L10.8809 2.53711C11.4017 1.92441 12.0197 1.45212 12.7373 1.11621C13.4541 0.780742 14.2065 0.613281 15 0.613281Z" stroke="#C5C6CD"/>
</svg>
