<svg width="20" height="20" viewBox="0 0 20 20" fill="none" xmlns="http://www.w3.org/2000/svg">
<mask id="mask0_2561_15893" style="mask-type:alpha" maskUnits="userSpaceOnUse" x="0" y="0" width="20" height="20">
<rect width="20" height="20" fill="#FFAA35"/>
</mask>
<g mask="url(#mask0_2561_15893)">
<path d="M9.99979 18.3327C9.80614 18.3327 9.61258 18.2987 9.41911 18.2307C9.22546 18.1627 9.04626 18.0642 8.88153 17.9351C6.91967 16.3536 5.45551 14.8105 4.48904 13.3057C3.52239 11.8009 3.03906 10.3223 3.03906 8.86984C3.03906 7.67812 3.24949 6.63401 3.67035 5.73751C4.0912 4.841 4.6345 4.09031 5.30023 3.48544C5.96614 2.88075 6.71272 2.42634 7.53998 2.12221C8.36706 1.81808 9.18699 1.66602 9.99979 1.66602C10.8126 1.66602 11.6325 1.81808 12.4596 2.12221C13.2869 2.42634 14.0334 2.88075 14.6994 3.48544C15.3651 4.09031 15.9084 4.841 16.3292 5.73751C16.7501 6.63401 16.9605 7.67812 16.9605 8.86984C16.9605 10.3223 16.4772 11.8009 15.5106 13.3057C14.5441 14.8105 13.0799 16.3536 11.1181 17.9351C10.9533 18.0642 10.7741 18.1627 10.5805 18.2307C10.387 18.2987 10.1934 18.3327 9.99979 18.3327ZM9.99979 10.6553C10.5338 10.6553 10.9899 10.4679 11.3681 10.0931C11.7465 9.71824 11.9357 9.26035 11.9357 8.71938C11.9357 8.18537 11.7465 7.72926 11.3681 7.35106C10.9899 6.97268 10.5338 6.78349 9.99979 6.78349C9.47256 6.78349 9.01815 6.97268 8.63656 7.35106C8.25479 7.72926 8.06391 8.18537 8.06391 8.71938C8.06391 9.26035 8.25479 9.71824 8.63656 10.0931C9.01815 10.4679 9.47256 10.6553 9.99979 10.6553Z" fill="#E9EBEF"/>
</g>
</svg>
