<svg width="20" height="20" viewBox="0 0 20 20" fill="none" xmlns="http://www.w3.org/2000/svg">
<path d="M0 8.53703V18.3333C0 19.2538 0.746192 20 1.66667 20H18.3333C19.2538 20 20 19.2538 20 18.3333V1.64477C20 0.962136 19.2242 0.569073 18.6738 0.972829L11.5113 6.22678C10.9608 6.63053 10.185 6.23747 10.185 5.55484V3.24453C10.185 2.6067 9.49775 2.20533 8.94223 2.51873L0.84772 7.08544C0.32396 7.38093 0 7.93566 0 8.53703Z" fill="#E9EBEF"/>
<rect x="3.15039" y="10.8281" width="3.33333" height="3.33333" rx="0.833333" fill="#C5C6CD"/>
<rect x="8.33203" y="10.8281" width="3.33333" height="3.33333" rx="0.833333" fill="#C5C6CD"/>
<rect x="13.5156" y="10.8281" width="3.33333" height="3.33333" rx="0.833333" fill="#C5C6CD"/>
</svg>
