<svg width="25" height="25" viewBox="0 0 25 25" fill="none" xmlns="http://www.w3.org/2000/svg">
<path d="M0.650391 4.08203C0.650391 1.87289 2.44125 0.0820312 4.65039 0.0820312H20.6504C22.8595 0.0820312 24.6504 1.87289 24.6504 4.08203V20.082C24.6504 22.2912 22.8595 24.082 20.6504 24.082H4.65039C2.44125 24.082 0.650391 22.2912 0.650391 20.082V4.08203Z" fill="#E9EBEF"/>
<path d="M2.375 17.8004L8.28356 10.985C8.69153 10.5144 9.42577 10.5272 9.8171 11.0117L13.5926 15.6863C13.9772 16.1625 14.6957 16.1845 15.1087 15.7326L17.2274 13.4145C17.6169 12.9882 18.2855 12.9796 18.6859 13.3955L22.9268 17.8004" stroke="#C5C6CD" stroke-width="1.6" stroke-linecap="round"/>
<circle cx="17.9663" cy="6.40381" r="2.08037" stroke="#C5C6CD" stroke-width="1.6"/>
</svg>
