<svg width="123" height="32" viewBox="0 0 123 32" fill="none" xmlns="http://www.w3.org/2000/svg">
<path d="M21.1328 6.96191H17.7949C12.4615 6.96193 8.05432 10.917 7.33984 16.0537H19.5889V23.0303H7.23633V32H0.273438V17.5215C0.273438 7.84487 8.11831 1.88477e-05 17.7949 0H21.1328V6.96191ZM43.1191 32H36.1426V23.1143H29.2217V32H22.2598V17.5215C22.2598 7.84497 30.1048 0.000184533 39.7812 0H43.1191V32ZM54.4941 0.0839844C59.8909 0.0842091 64.2664 4.45968 64.2666 9.85645C64.2665 11.6164 63.7977 13.266 62.9834 14.6924C65.2461 16.4535 66.703 19.2017 66.7031 22.291C66.703 27.6061 62.3941 31.9147 57.0791 31.915H52.7676V31.916H45.791V0.0839844H54.4941ZM75.5078 12.8535C79.5434 11.553 82.4638 7.76893 82.4639 3.30078V0.0869141H89.4258V3.30078C89.4258 8.8919 86.7261 13.8521 82.5596 16.9502C86.7339 20.1528 89.4258 25.1916 89.4258 30.8594V31.9131H82.4639V30.8594C82.4639 26.2931 79.5653 22.4035 75.5078 20.9307V31.9131H68.5312V0.0869141H75.5078V12.8535ZM99.0732 31.9131H92.0977V0.0869141H99.0732V31.9131ZM122.631 7.06348H115.676V31.9131H108.7V7.06348H101.745V0.0869141H122.631V7.06348ZM52.7676 24.9531H57.0791C58.5491 24.9528 59.7411 23.7611 59.7412 22.291C59.7411 20.821 58.5491 19.6293 57.0791 19.6289H52.7676V24.9531ZM36.1426 7.60547C32.5195 8.93542 29.8313 12.1952 29.3154 16.1387H36.1426V7.60547ZM52.7676 12.666H54.5137C56.0565 12.6553 57.3045 11.4017 57.3047 9.85645C57.3045 8.30469 56.0459 7.0471 54.4941 7.04688H52.7676V12.666Z" fill="url(#paint0_linear_3158_42261)"/>
<defs>
<linearGradient id="paint0_linear_3158_42261" x1="0.273438" y1="16" x2="122.631" y2="16" gradientUnits="userSpaceOnUse">
<stop offset="0.389423" stop-color="#FF363C"/>
<stop offset="1" stop-color="#FF8345"/>
</linearGradient>
</defs>
</svg>
