<svg width="21" height="20" viewBox="0 0 21 20" fill="none" xmlns="http://www.w3.org/2000/svg">
<path fill-rule="evenodd" clip-rule="evenodd" d="M12.4872 1.33301C12.4872 0.89118 12.8452 0.533203 13.287 0.533203H17.2958C18.8421 0.533335 20.0956 1.78669 20.0956 3.33301V16.665C20.0956 18.2114 18.8421 19.4647 17.2958 19.4648H13.287C12.8452 19.4648 12.4872 19.1069 12.4872 18.665C12.4872 18.2232 12.8452 17.8652 13.287 17.8652H17.2958C17.9584 17.8651 18.496 17.3277 18.496 16.665V3.33301C18.496 2.67035 17.9584 2.13294 17.2958 2.13281H13.287C12.8453 2.13281 12.4873 1.77471 12.4872 1.33301ZM1.40809 11.249C0.736394 10.5519 0.736338 9.44811 1.40809 8.75098L5.59949 4.40137C5.9061 4.0836 6.41233 4.07443 6.73035 4.38086C7.04833 4.68731 7.058 5.19355 6.75184 5.51172L3.18348 9.21484L14.5497 9.21973C14.9911 9.22027 15.3486 9.57904 15.3485 10.0205C15.3481 10.462 14.9902 10.8193 14.5487 10.8193L3.20985 10.8145L6.75184 14.4893C7.05795 14.8074 7.04828 15.3137 6.73035 15.6201C6.41219 15.9266 5.90605 15.9168 5.59949 15.5986L1.40809 11.249Z" fill="#999BA5"/>
</svg>
