<svg width="24" height="25" viewBox="0 0 24 25" fill="none" xmlns="http://www.w3.org/2000/svg">
<path d="M12 9.29387C14.3257 9.29387 16.3998 10.5719 17.4123 12.5939C16.3998 14.6159 14.3318 15.8939 12 15.8939C9.66818 15.8939 7.60023 14.6159 6.58773 12.5939C7.60023 10.5719 9.67432 9.29387 12 9.29387ZM12 8.09387C8.93182 8.09387 6.31159 9.95987 5.25 12.5939C6.31159 15.2279 8.93182 17.0939 12 17.0939C15.0682 17.0939 17.6884 15.2279 18.75 12.5939C17.6884 9.95987 15.0682 8.09387 12 8.09387ZM12 11.0939C12.8468 11.0939 13.5341 11.7659 13.5341 12.5939C13.5341 13.4219 12.8468 14.0939 12 14.0939C11.1532 14.0939 10.4659 13.4219 10.4659 12.5939C10.4659 11.7659 11.1532 11.0939 12 11.0939ZM12 9.89387C10.4782 9.89387 9.23864 11.1059 9.23864 12.5939C9.23864 14.0819 10.4782 15.2939 12 15.2939C13.5218 15.2939 14.7614 14.0819 14.7614 12.5939C14.7614 11.1059 13.5218 9.89387 12 9.89387Z" fill="#999BA5"/>
<path d="M17.3479 7.24597L6.6521 17.9418" stroke="#999BA5" stroke-width="1.4" stroke-linecap="round"/>
</svg>
