<svg width="17" height="17" viewBox="0 0 17 17" fill="none" xmlns="http://www.w3.org/2000/svg">
<path d="M8.65137 0.0820312C9.20365 0.0820312 9.65137 0.529747 9.65137 1.08203V7.08203H15.6514C16.2037 7.08203 16.6514 7.52975 16.6514 8.08203C16.6514 8.63432 16.2037 9.08203 15.6514 9.08203H9.65137V15.083C9.65108 15.6351 9.20348 16.083 8.65137 16.083C8.09926 16.083 7.65165 15.6351 7.65137 15.083V9.08203H1.65039C1.09835 9.08175 0.650391 8.63414 0.650391 8.08203C0.650391 7.52992 1.09835 7.08231 1.65039 7.08203H7.65137V1.08203C7.65137 0.529747 8.09908 0.0820312 8.65137 0.0820312Z" fill="white"/>
</svg>
