<svg width="30" height="26" viewBox="0 0 30 26" fill="none" xmlns="http://www.w3.org/2000/svg">
<path d="M7.00195 0.353516H18.0532L22.9989 0.35908C24.1026 0.360322 24.9967 1.25539 24.9967 2.35908V8.27647V22.3535C24.9967 23.4581 24.1013 24.3535 22.9967 24.3535H7.00195C5.89738 24.3535 5.00195 23.4581 5.00195 22.3535V2.35352C5.00195 1.24895 5.89738 0.353516 7.00195 0.353516Z" fill="#FFAEB1"/>
<path d="M7.99414 4.62305H14.5432" stroke="#FF363C" stroke-width="1.6" stroke-linecap="round"/>
<path d="M7.99414 8.62305H22.0061" stroke="#FF363C" stroke-width="1.6" stroke-linecap="round"/>
<path d="M12.7384 16.6791C13.2674 17.0792 13.2674 17.8741 12.7384 18.2743L4.59354 24.4342C3.93482 24.9324 2.99033 24.4625 2.99033 23.6366L2.99033 11.3167C2.99033 10.4908 3.93482 10.021 4.59354 10.5192L12.7384 16.6791Z" fill="#FF363C"/>
<path d="M17.2636 16.6791C16.7345 17.0792 16.7345 17.8741 17.2636 18.2743L25.4084 24.4342C26.0671 24.9324 27.0116 24.4625 27.0116 23.6366L27.0116 11.3167C27.0116 10.4908 26.0671 10.021 25.4084 10.5192L17.2636 16.6791Z" fill="#FF363C"/>
<path d="M14.4424 15.457C14.7792 15.2313 15.2189 15.2313 15.5557 15.457L26.5626 22.832C27.3836 23.3821 26.9942 24.6628 26.006 24.6628H3.99209C3.00388 24.6628 2.61449 23.3821 3.43545 22.832L14.4424 15.457Z" fill="#FFE0E1"/>
</svg>
