<svg width="24" height="24" viewBox="0 0 24 24" fill="none" xmlns="http://www.w3.org/2000/svg">
<path d="M0 10.2444V22C0 23.1046 0.89543 24 2 24H22C23.1046 24 24 23.1046 24 22V1.97372C24 1.15456 23.069 0.682889 22.4085 1.1674L13.8135 7.47213C13.153 7.95664 12.222 7.48496 12.222 6.6658V3.89343C12.222 3.12805 11.3973 2.6464 10.7307 3.02248L1.01726 8.50253C0.388752 8.85712 0 9.5228 0 10.2444Z" fill="#FFAEB1"/>
<rect x="3.78125" y="12.9922" width="4" height="4" rx="1" fill="#FF363C"/>
<rect x="10" y="12.9922" width="4" height="4" rx="1" fill="#FF363C"/>
<rect x="16.2188" y="12.9922" width="4" height="4" rx="1" fill="#FF363C"/>
</svg>
