<svg width="20" height="24" viewBox="0 0 20 24" fill="none" xmlns="http://www.w3.org/2000/svg">
<path d="M2 0H13.0513L19.9947 7.92295V22C19.9947 23.1046 19.0993 24 17.9947 24H2C0.895431 24 0 23.1046 0 22V2C0 0.895431 0.895429 0 2 0Z" fill="#FFAEB1"/>
<path d="M13.6493 0.282745L19.8034 7.41349C20.2508 7.93187 19.8826 8.73626 19.198 8.73626H13.0439C12.6022 8.73626 12.2441 8.37809 12.2441 7.93626V0.805511C12.2441 0.0641761 13.165 -0.27842 13.6493 0.282745Z" fill="#FF363C"/>
<path d="M2.99219 7.26172H9.54124" stroke="#FF363C" stroke-width="1.6" stroke-linecap="round"/>
<path d="M2.99219 11.2617H17.0041" stroke="#FF363C" stroke-width="1.6" stroke-linecap="round"/>
<path d="M2.99219 15.2617H17.0041" stroke="#FF363C" stroke-width="1.6" stroke-linecap="round"/>
</svg>
