<svg width="24" height="18" viewBox="0 0 24 18" fill="none" xmlns="http://www.w3.org/2000/svg">
<circle cx="5.59688" cy="15.2297" r="2.3" fill="#FF363C"/>
<circle cx="18.3117" cy="15.2297" r="2.3" fill="#FF363C"/>
<path d="M20.2578 4.96875C20.3805 4.96875 20.4992 5.01402 20.5908 5.0957L21.9912 6.34375V6.34473L23.332 7.54297C23.4381 7.6378 23.499 7.77373 23.499 7.91602V9.96875H17.7793V4.96875H20.2578Z" fill="#FF363C" stroke="#FFE0E1"/>
<path d="M17.2793 9.46875H23.9993V13.4688C23.9993 14.021 23.5516 14.4688 22.9993 14.4688H17.2793V9.46875Z" fill="#FFE0E1"/>
<path d="M0 1.46875C0 0.916466 0.447715 0.46875 1 0.46875H16.28C16.8323 0.46875 17.28 0.916465 17.28 1.46875V14.4688H0.999998C0.447714 14.4688 0 14.021 0 13.4688V1.46875Z" fill="#FFAEB1"/>
</svg>
