<svg width="16" height="16" viewBox="0 0 16 16" fill="none" xmlns="http://www.w3.org/2000/svg">
<path d="M7.13795 0.930833C7.39979 0.442365 8.10021 0.442365 8.36205 0.930833L10.2675 4.48543C10.3642 4.66571 10.5354 4.79421 10.7354 4.83666L14.5925 5.65494C15.1111 5.76498 15.3201 6.3922 14.9711 6.79136L12.2708 9.87984C12.1428 10.0262 12.0821 10.2195 12.1033 10.4128L12.5575 14.5445C12.617 15.0865 12.0574 15.4826 11.5661 15.2461L8.05113 13.5546C7.86082 13.4631 7.63918 13.4631 7.44887 13.5546L3.93395 15.2461C3.44262 15.4826 2.88295 15.0865 2.94253 14.5445L3.39667 10.4128C3.41791 10.2195 3.35716 10.0262 3.22918 9.87984L0.528873 6.79136C0.179885 6.3922 0.388889 5.76498 0.907551 5.65494L4.76456 4.83666C4.96465 4.79421 5.13585 4.66571 5.23249 4.48543L7.13795 0.930833Z" fill="#FF8345"/>
</svg>
