<svg width="31" height="31" viewBox="0 0 31 31" fill="none" xmlns="http://www.w3.org/2000/svg">
<path d="M14.5259 1.5726C15.0496 0.595668 16.4504 0.595668 16.9741 1.5726L20.785 8.6818C20.9783 9.04235 21.3207 9.29936 21.7209 9.38426L29.4349 11.0208C30.4722 11.2409 30.8902 12.4953 30.1923 13.2937L24.7916 19.4706C24.5357 19.7634 24.4142 20.15 24.4567 20.5366L25.3649 28.7999C25.4841 29.8839 24.3648 30.6761 23.3821 30.2032L16.3523 26.8202C15.9716 26.637 15.5284 26.637 15.1477 26.8202L8.11789 30.2032C7.13525 30.6761 6.0159 29.8839 6.13505 28.7999L7.04333 20.5366C7.08582 20.15 6.96431 19.7634 6.70836 19.4706L1.30775 13.2937C0.60977 12.4953 1.02778 11.2409 2.0651 11.0208L9.77912 9.38426C10.1793 9.29936 10.5217 9.04235 10.715 8.6818L14.5259 1.5726Z" fill="#FF8345"/>
</svg>
