<svg width="21" height="21" viewBox="0 0 21 21" fill="none" xmlns="http://www.w3.org/2000/svg">
<rect x="2.41699" y="8.23047" width="4.25059" height="10.0911" rx="1.55201" fill="#4D76FF"/>
<path d="M18.6178 8.69937C18.3074 8.38897 17.9453 8.23377 17.5314 8.23377H13.3022L14.1752 4.66415C14.2399 4.41841 14.2172 4.17914 14.1073 3.94634C13.9974 3.71354 13.8195 3.53247 13.5738 3.40314C13.3281 3.2738 13.0726 3.22854 12.8075 3.26734C12.5424 3.30614 12.3128 3.41607 12.1188 3.59714L7.90896 7.78756C7.76669 7.92983 7.65353 8.09473 7.56946 8.28227C7.48539 8.4698 7.44336 8.66704 7.44336 8.87397V16.7698C7.44336 17.1966 7.59533 17.562 7.89926 17.8659C8.2032 18.1699 8.56857 18.3218 8.99537 18.3218H15.2034C15.5009 18.3218 15.7854 18.2313 16.057 18.0502C16.3286 17.8692 16.5226 17.6493 16.639 17.3906L18.967 11.9198C19.0058 11.8293 19.0349 11.7323 19.0543 11.6288C19.0737 11.5253 19.0834 11.4283 19.0834 11.3378V9.78578C19.0834 9.37191 18.9282 9.00977 18.6178 8.69937Z" fill="#D6E0FF"/>
</svg>
