<svg width="13" height="16" viewBox="0 0 13 16" fill="none" xmlns="http://www.w3.org/2000/svg">
<path d="M11.6178 5.69937C11.3074 5.38897 10.9453 5.23377 10.5314 5.23377H6.30219L7.1752 1.66415C7.23987 1.41841 7.21723 1.17914 7.1073 0.946341C6.99736 0.71354 6.81953 0.532472 6.5738 0.403138C6.32806 0.273804 6.07263 0.228537 5.80749 0.267337C5.54236 0.306137 5.31279 0.416071 5.11879 0.597139L0.908962 4.78756C0.766695 4.92983 0.653527 5.09473 0.56946 5.28227C0.485393 5.4698 0.443359 5.66704 0.443359 5.87397V13.7698C0.443359 14.1966 0.595327 14.562 0.899262 14.8659C1.2032 15.1699 1.56857 15.3218 1.99537 15.3218H8.2034C8.50087 15.3218 8.78541 15.2313 9.05701 15.0502C9.32861 14.8692 9.52261 14.6493 9.63901 14.3906L11.967 8.91979C12.0058 8.82925 12.0349 8.73225 12.0543 8.62879C12.0737 8.52532 12.0834 8.42832 12.0834 8.33778V6.78578C12.0834 6.37191 11.9282 6.00977 11.6178 5.69937Z" fill="#D6E0FF"/>
</svg>
