<svg width="32" height="32" viewBox="0 0 32 32" fill="none" xmlns="http://www.w3.org/2000/svg">
<rect x="14.9802" y="12.4119" width="13.0199" height="12.7648" rx="1.2" fill="#FF363C"/>
<path d="M18.209 21.0881C17.9746 21.0881 17.8027 20.9877 17.6465 20.7727C17.5371 20.6293 17.4902 20.5003 17.4902 20.3712C17.4902 20.1849 17.5996 20.0415 17.8027 19.9125C18.709 19.3677 19.3809 18.8515 19.834 18.3354C20.2871 17.8193 20.5059 17.2601 20.5059 16.6723C20.5059 16.572 20.459 16.529 20.3496 16.529H18.4434C18.1934 16.529 18.0059 16.4716 17.8652 16.3713C17.7402 16.2709 17.6777 16.1132 17.6777 15.9125C17.6777 15.7118 17.7402 15.5684 17.8652 15.4537C17.9902 15.3533 18.1777 15.296 18.4434 15.296H21.209C21.4746 15.296 21.6777 15.3533 21.8184 15.4824C21.959 15.6114 22.0371 15.7978 22.0215 16.0558V16.4286C21.9902 17.1168 21.8496 17.7333 21.584 18.2637C21.3184 18.7942 20.9277 19.2816 20.459 19.6974C19.9902 20.1132 19.3809 20.5433 18.6465 20.9447C18.5059 21.0307 18.3652 21.0738 18.2246 21.0738L18.209 21.0881ZM23.5996 22.7942C23.3809 22.7942 23.209 22.7368 23.0684 22.6365C22.9434 22.5361 22.8809 22.3784 22.8809 22.1777V15.4107C22.8809 15.21 22.9434 15.0666 23.0684 14.9519C23.1934 14.8515 23.3652 14.7942 23.5996 14.7942H23.6465C23.8652 14.7942 24.0371 14.8515 24.1777 14.9519C24.3027 15.0523 24.3652 15.21 24.3652 15.4107V17.3605H24.8184C25.0371 17.3605 25.1934 17.4178 25.3184 17.5182C25.4277 17.6329 25.4902 17.7763 25.4902 17.977C25.4902 18.1777 25.4277 18.3211 25.3184 18.4358C25.209 18.5505 25.0371 18.5935 24.8184 18.5935H24.3652V22.1777C24.3652 22.3784 24.3027 22.5218 24.1777 22.6365C24.0527 22.7368 23.8809 22.7942 23.6465 22.7942H23.5996Z" fill="#FFAEB1"/>
<rect x="4" y="6.82324" width="13.0199" height="12.7648" rx="1.2" fill="#FFAEB1"/>
<path d="M7.31001 16.9032C7.22273 16.7932 7.16455 16.6557 7.16455 16.5045C7.16455 16.4083 7.1791 16.3121 7.22273 16.2159L9.65182 9.86536C9.81182 9.4255 10.1027 9.20557 10.51 9.20557C10.9173 9.20557 11.2082 9.4255 11.3682 9.86536L13.7973 16.2021C13.8409 16.2983 13.8555 16.4083 13.8555 16.5045C13.8555 16.642 13.8118 16.7794 13.7246 16.8894C13.6373 16.9994 13.5064 17.0819 13.3318 17.1506C13.23 17.1918 13.1136 17.2056 12.9973 17.2056C12.8373 17.2056 12.6773 17.1643 12.5609 17.0681C12.4446 16.9719 12.3427 16.8619 12.2846 16.697L11.7318 15.2124H9.27364L8.72091 16.697C8.66273 16.8482 8.57546 16.9719 8.44455 17.0681C8.31364 17.1506 8.16819 17.2056 8.00819 17.2056C7.89182 17.2056 7.79001 17.1918 7.68819 17.1643C7.51364 17.0956 7.38273 17.0131 7.29546 16.9032H7.31001ZM10.67 12.3396L10.4955 11.831L10.35 12.3396L9.78273 13.8654H11.2373L10.67 12.3396Z" fill="#FF363C"/>
</svg>
