<svg width="20" height="24" viewBox="0 0 20 24" fill="none" xmlns="http://www.w3.org/2000/svg">
<path d="M2 0H13.0513L19.9947 7.92295V22C19.9947 23.1046 19.0993 24 17.9947 24H2C0.895431 24 0 23.1046 0 22V2C0 0.895431 0.895429 0 2 0Z" fill="#E9EBEF"/>
<path d="M13.6493 0.280792L19.8034 7.41154C20.2508 7.92991 19.8826 8.73431 19.198 8.73431H13.0439C12.6022 8.73431 12.2441 8.37613 12.2441 7.93431V0.803557C12.2441 0.062223 13.165 -0.280373 13.6493 0.280792Z" fill="#C5C6CD"/>
<path d="M2.99219 7.26367H9.54124" stroke="#C5C6CD" stroke-width="1.6" stroke-linecap="round"/>
<path d="M2.99219 11.2637H17.0041" stroke="#C5C6CD" stroke-width="1.6" stroke-linecap="round"/>
<path d="M2.99219 15.2637H17.0041" stroke="#C5C6CD" stroke-width="1.6" stroke-linecap="round"/>
</svg>
