<svg width="20" height="20" viewBox="0 0 20 20" fill="none" xmlns="http://www.w3.org/2000/svg">
<path d="M18.957 11.7046C19.3989 11.7046 19.7568 12.0626 19.7568 12.5044V16.5132C19.7567 18.0595 18.5033 19.313 16.957 19.313H3.625C2.07869 19.313 0.825327 18.0595 0.825195 16.5132V12.5044C0.825195 12.0626 1.18317 11.7046 1.625 11.7046C2.06683 11.7046 2.4248 12.0626 2.4248 12.5044V16.5132C2.42494 17.1758 2.96234 17.7134 3.625 17.7134H16.957C17.6197 17.7134 18.1571 17.1758 18.1572 16.5132V12.5044C18.1572 12.0627 18.5153 11.7048 18.957 11.7046ZM9.17578 0.507358C9.87403 -0.0438309 10.8854 -0.00431397 11.5391 0.625522L15.8887 4.81693C16.2064 5.12354 16.2156 5.62976 15.9092 5.94779C15.6027 6.26577 15.0965 6.27543 14.7783 5.96927L11.0752 2.40091L11.0703 13.7671L11.0664 13.8492C11.0249 14.2521 10.6833 14.566 10.2695 14.566C9.8554 14.5656 9.51525 14.2506 9.47461 13.8472L9.4707 13.7661L9.47559 2.42728L5.80078 5.96927C5.48262 6.27538 4.97636 6.26572 4.66992 5.94779C4.36342 5.62963 4.37328 5.12348 4.69141 4.81693L9.04102 0.625522L9.17578 0.507358Z" fill="#6F717C"/>
</svg>
