<svg width="281" height="201" viewBox="0 0 281 201" fill="none" xmlns="http://www.w3.org/2000/svg">
<path d="M232.039 84.6155C254.983 84.6155 273.582 66.8396 273.582 44.9118C273.582 22.984 254.983 5.20801 232.039 5.20801C209.096 5.20801 190.496 22.984 190.496 44.9118C190.496 66.8396 209.096 84.6155 232.039 84.6155Z" fill="#FFE0E1"/>
<path d="M266.687 75.7778C274.297 75.7778 280.466 69.8819 280.466 62.609C280.466 55.3361 274.297 49.4402 266.687 49.4402C259.077 49.4402 252.908 55.3361 252.908 62.609C252.908 69.8819 259.077 75.7778 266.687 75.7778Z" fill="#FFE0E1"/>
<path d="M199.25 51.3154C206.86 51.3154 213.029 45.4195 213.029 38.1466C213.029 30.8737 206.86 24.9778 199.25 24.9778C191.64 24.9778 185.471 30.8737 185.471 38.1466C185.471 45.4195 191.64 51.3154 199.25 51.3154Z" fill="#FFE0E1"/>
<mask id="mask0_820_9509" style="mask-type:luminance" maskUnits="userSpaceOnUse" x="190" y="1" width="86" height="82">
<path d="M233.152 82.8066C256.71 82.8066 275.808 64.5543 275.808 42.039C275.808 19.5237 256.71 1.27148 233.152 1.27148C209.593 1.27148 190.496 19.5237 190.496 42.039C190.496 64.5543 209.593 82.8066 233.152 82.8066Z" fill="white"/>
</mask>
<g mask="url(#mask0_820_9509)">
<path d="M269.693 -24.0604C260.187 -25.6366 250.881 -24.0604 242.917 -20.1537C237.333 -32.1779 225.777 -41.3987 211.193 -43.8194C187.974 -47.6698 165.898 -32.7971 161.881 -10.6064C157.853 11.5844 173.414 32.6831 196.633 36.5223C206.139 38.0985 215.446 36.5223 223.409 32.6156C228.993 44.6398 240.549 53.8606 255.133 56.2812C278.352 60.1317 300.428 45.259 304.445 23.0682C308.462 0.877457 292.912 -20.2212 269.693 -24.0604Z" fill="#1233A1"/>
</g>
<path d="M201.831 56.7208C203.263 56.7208 204.424 54.9192 204.424 52.6967C204.424 50.4743 203.263 48.6726 201.831 48.6726C200.399 48.6726 199.239 50.4743 199.239 52.6967C199.239 54.9192 200.399 56.7208 201.831 56.7208Z" fill="#1E1E1E"/>
<path d="M213.602 60.745C215.034 60.745 216.195 58.9433 216.195 56.7209C216.195 54.4984 215.034 52.6968 213.602 52.6968C212.17 52.6968 211.009 54.4984 211.009 56.7209C211.009 58.9433 212.17 60.745 213.602 60.745Z" fill="#1E1E1E"/>
<path d="M256.417 123.509C256.417 142.435 240.367 157.775 220.565 157.775C200.763 157.775 184.713 142.435 184.713 123.509C184.713 117.117 186.548 111.13 189.738 106.009C195.99 95.9766 207.452 89.2551 220.565 89.2551C240.367 89.2551 256.417 104.595 256.417 123.52V123.509Z" fill="#2651DF"/>
<path d="M122.027 106.26L120.685 103.135C120.088 101.754 119.01 100.613 117.622 99.9226L99.4489 90.756C97.3265 89.6814 95.835 87.7187 95.5023 85.449C95.0204 82.1595 95.1352 77.3569 98.6573 73.7166C100.206 72.1157 102.455 71.3043 104.726 71.4688L128.2 73.1245C130.643 73.2999 132.72 71.4468 132.72 69.1113C132.72 69.1113 129.898 58.7386 131.424 56.732C133.248 54.3197 135.508 55.0215 137.321 56.3153C139.248 57.6969 140.544 59.7144 141.187 61.9293L144.961 75.0872C145.65 77.4885 146.005 79.9775 146.005 82.4665V101.622L122.039 106.271L122.027 106.26Z" fill="#FFE0E1"/>
<path d="M196.841 98.0145L159.784 121.117L150.755 97.4772C150.261 96.1943 148.827 95.4816 147.451 95.8435L112.493 104.824C110.979 105.207 110.107 106.732 110.589 108.157L123.679 147.762C127.419 159.078 140.074 165.328 151.891 161.709L199.124 147.225" fill="#2651DF"/>
<path d="M178.072 188.102L154.794 75.2954C153.715 70.098 147.612 67.4445 142.805 70.098L88.7564 99.9225C83.9493 102.576 83.2953 108.957 87.4829 112.444L178.06 188.113L178.072 188.102Z" fill="#FFAEB1"/>
<path d="M207.751 164.933L206.007 165.777C204.057 166.72 201.808 166.896 199.72 166.26L178.702 159.835C174.985 158.694 170.924 159.922 168.56 162.894L168.411 163.08C166.874 165.021 166.231 167.477 166.656 169.878L167.218 173.036L164.35 174.44C161.264 175.953 160.277 179.714 162.239 182.444L172.094 196.139C174.274 199.176 178.106 200.722 181.892 200.108L187.169 199.253C188.661 199.012 190.072 198.453 191.288 197.608L198.894 192.378C199.812 191.753 200.845 191.293 201.935 191.041L217.687 187.4C219.316 187.027 220.188 185.328 219.522 183.87L211.423 166.194C210.803 164.835 209.117 164.264 207.74 164.933H207.751Z" fill="#FFE0E1"/>
<path d="M255.007 113.959L273.524 158.838C278.916 171.908 270.45 186.426 255.982 188.915L214.061 196.119C211.193 196.612 208.405 194.967 207.59 192.292L198.492 162.786C197.632 159.979 199.238 157.029 202.129 156.086L223.721 149.101L255.019 113.959H255.007Z" fill="#2651DF"/>
<mask id="mask1_820_9509" style="mask-type:luminance" maskUnits="userSpaceOnUse" x="84" y="69" width="95" height="120">
<path d="M178.072 188.102L154.793 75.2954C153.715 70.098 147.611 67.4445 142.804 70.098L88.7561 99.9224C83.949 102.576 83.2951 108.957 87.4826 112.444L178.06 188.113L178.072 188.102Z" fill="white"/>
</mask>
<g mask="url(#mask1_820_9509)">
<path d="M144.274 66.3121L100.998 137.949L115.286 145.832L158.561 74.1958L144.274 66.3121Z" fill="#FF363C"/>
</g>
<path d="M57.7174 22.3587C58.6796 20.4491 61.0793 19.6466 63.0774 20.5662L61.7127 23.2753C63.0754 20.5714 63.0792 20.5666 63.0807 20.5673C63.0814 20.5676 63.0828 20.5689 63.0841 20.5695C63.0867 20.5707 63.0897 20.5722 63.0931 20.5737C63.0997 20.5768 63.1083 20.58 63.1177 20.5844C63.1368 20.5934 63.1615 20.6055 63.1916 20.6198C63.2521 20.6486 63.3349 20.6889 63.4381 20.7397C63.6445 20.8413 63.9345 20.9868 64.2986 21.1787C65.027 21.5629 66.0548 22.1316 67.3091 22.8973C69.8159 24.4279 73.2413 26.7527 77.0016 29.971C84.5203 36.406 93.431 46.462 98.9623 60.9189C99.7236 62.9093 98.6529 65.1123 96.5703 65.8402C94.4875 66.5681 92.1814 65.5447 91.4198 63.5541C86.4421 50.5443 78.4258 41.4934 71.6439 35.689C68.2537 32.7875 65.1846 30.7086 62.9855 29.366C61.8869 28.6953 61.008 28.2098 60.4187 27.899C60.1244 27.7438 59.9028 27.632 59.7621 27.5628C59.6919 27.5282 59.6417 27.5046 59.6131 27.491C59.6029 27.4862 59.5954 27.4825 59.5907 27.4803C57.5943 26.56 56.7556 24.2676 57.7174 22.3587Z" fill="#FF363C"/>
<path d="M109.568 3.77028C109.746 1.6577 111.684 0.0836043 113.894 0.253811C116.104 0.424247 117.752 2.27454 117.573 4.38705V4.38919C117.573 4.39209 117.573 4.39735 117.572 4.40418C117.571 4.41855 117.569 4.44162 117.567 4.47271C117.562 4.53543 117.555 4.63167 117.545 4.75968C117.527 5.01622 117.499 5.40092 117.468 5.899C117.407 6.89538 117.331 8.34632 117.271 10.1436C117.151 13.7431 117.098 18.7104 117.367 24.1859C117.917 35.3696 119.782 47.8268 124.493 55.409C125.625 57.2313 124.997 59.5855 123.09 60.6676C121.183 61.7498 118.719 61.1494 117.587 59.327C111.766 49.9575 109.897 35.7695 109.345 24.5468C109.064 18.819 109.118 13.6418 109.243 9.89839C109.306 8.02497 109.387 6.50511 109.452 5.4482C109.484 4.91968 109.513 4.50617 109.534 4.22215C109.544 4.08021 109.552 3.9703 109.558 3.89449C109.561 3.85678 109.564 3.82739 109.566 3.80668C109.567 3.79645 109.568 3.78802 109.568 3.78205V3.77242C109.568 3.77156 109.569 3.77123 113.492 4.07331L109.568 3.77028Z" fill="#FF8345"/>
<path d="M40.9671 61.6662C41.1763 59.5562 43.1356 58.0078 45.3434 58.2075L45.0106 61.5666C45.3435 58.2075 45.3446 58.2074 45.3456 58.2075H45.3478C45.3495 58.2077 45.3513 58.2084 45.3534 58.2086C45.3579 58.209 45.3638 58.2091 45.3703 58.2097C45.3834 58.2109 45.4008 58.213 45.4218 58.215C45.4641 58.2192 45.5224 58.2255 45.5954 58.2332C45.7415 58.2487 45.9478 58.2709 46.2083 58.3028C46.7291 58.3668 47.4689 58.4668 48.3807 58.6144C50.2008 58.9091 52.7276 59.3966 55.5803 60.1735C61.0191 61.6547 68.0321 64.2904 73.501 68.954L74.0253 69.4112L74.1732 69.5493C75.6497 71.0093 75.6832 73.3359 74.2158 74.8358C72.7484 76.3352 70.3187 76.4582 68.6956 75.1485L68.541 75.0178L68.1444 74.672C63.9967 71.1388 58.3358 68.9052 53.3799 67.5555C50.8678 66.8714 48.636 66.4412 47.0396 66.1828C46.2435 66.0539 45.6103 65.9683 45.1854 65.9161C44.9732 65.8901 44.8133 65.8723 44.7115 65.8615C44.6605 65.8561 44.6239 65.8529 44.6028 65.8508C44.5923 65.8498 44.5854 65.8489 44.5826 65.8487H44.5849L44.586 65.8476C42.3783 65.6477 40.7581 63.7761 40.9671 61.6662Z" fill="#4D76FF"/>
<path d="M157.822 24.1114C162.09 21.6114 167.299 25.5368 165.761 30.0872C165.28 31.5127 165.475 33.0806 166.289 34.3635C168.905 38.4424 164.798 43.4205 160.037 41.9512C158.545 41.4907 156.904 41.6771 155.562 42.4556C151.294 44.9556 146.086 41.0302 147.623 36.4797C148.105 35.0543 147.91 33.4863 147.095 32.2034C144.479 28.1245 148.587 23.1465 153.348 24.6158C154.839 25.0763 156.48 24.8899 157.822 24.1114Z" fill="#FFB794"/>
<path d="M8.28589 45.438L8.58419 41.2933C8.92837 36.5236 15.2958 34.7473 18.2787 38.574L20.8715 41.9074C21.8123 43.1135 23.2579 43.8701 24.8182 43.9688L29.1549 44.2538C34.1455 44.5828 36.0041 50.6683 32.0001 53.5191L28.5124 55.9972C27.2504 56.8963 26.4588 58.2779 26.3555 59.7691L26.0572 63.9138C25.713 68.6835 19.3456 70.4599 16.3627 66.6331L13.7699 63.2998C12.8291 62.0937 11.3835 61.3371 9.82324 61.2384L5.48654 60.9533C0.495879 60.6244 -1.36271 54.5389 2.64129 51.688L6.12901 49.21C7.39102 48.3108 8.18264 46.9293 8.28589 45.438Z" fill="#D6E0FF"/>
<path d="M54.7439 129.329L56.414 125.524C58.3369 121.146 64.9313 121.606 66.4592 126.211L67.7849 130.221C68.267 131.673 69.3754 132.87 70.8124 133.486L74.8027 135.208C79.3945 137.19 79.106 143.547 74.3781 144.891L70.2616 146.057C68.7713 146.481 67.5624 147.517 66.9653 148.888L65.2952 152.693C63.3723 157.071 56.7778 156.611 55.25 152.005L53.9243 147.996C53.4421 146.544 52.3337 145.347 50.8968 144.731L46.9064 143.009C42.3147 141.026 42.6031 134.67 47.331 133.326L51.4476 132.16C52.9379 131.736 54.1468 130.7 54.7439 129.329Z" fill="#FFAEB1"/>
</svg>
